/* XPM */
static char * beeb_xpm[] = {
"64 64 713 2",
"  	c #0A8D09",
". 	c #C1A136",
"+ 	c #D7B338",
"@ 	c #BFA035",
"# 	c #000000",
"$ 	c #E2BA34",
"% 	c #EFC228",
"& 	c #EDC333",
"* 	c #A0862F",
"= 	c #DFB936",
"- 	c #F0C32B",
"; 	c #ECC337",
"> 	c #90792A",
", 	c #4B4E4B",
"' 	c #4E514E",
") 	c #3E403E",
"! 	c #967E2A",
"~ 	c #977F2A",
"{ 	c #C4CAC3",
"] 	c #E6EDE5",
"^ 	c #EBF2EA",
"/ 	c #DAE1D9",
"( 	c #A0A59F",
"_ 	c #B2B6B2",
": 	c #E5EAE4",
"< 	c #E6EBE5",
"[ 	c #DADED9",
"} 	c #CED4CD",
"| 	c #EAF1E9",
"1 	c #E7EEE6",
"2 	c #8E938E",
"3 	c #8E928E",
"4 	c #E7ECE6",
"5 	c #E8EDE7",
"6 	c #C4CAC4",
"7 	c #D5DBD4",
"8 	c #C2C6C1",
"9 	c #E9EEE8",
"0 	c #DEE3DD",
"a 	c #DFE6DE",
"b 	c #E6ECE5",
"c 	c #C4C8C3",
"d 	c #DFE5DE",
"e 	c #E1E8E0",
"f 	c #CDD3CC",
"g 	c #999D99",
"h 	c #D4D9D4",
"i 	c #C1C6C1",
"j 	c #B0B4B1",
"k 	c #A9ADA9",
"l 	c #8F948E",
"m 	c #2B2822",
"n 	c #726A4E",
"o 	c #AE9B5E",
"p 	c #C1AB67",
"q 	c #645346",
"r 	c #C6CCC5",
"s 	c #E9F0E8",
"t 	c #E2E9E0",
"u 	c #898D89",
"v 	c #161514",
"w 	c #030303",
"x 	c #211519",
"y 	c #35242C",
"z 	c #6D5A45",
"A 	c #E6CC79",
"B 	c #F5DA80",
"C 	c #F5D980",
"D 	c #E3C877",
"E 	c #87775C",
"F 	c #A6A8A4",
"G 	c #BEC3BC",
"H 	c #C0C2B8",
"I 	c #CBC19F",
"J 	c #C5AA62",
"K 	c #8A703E",
"L 	c #3B2A34",
"M 	c #2F2227",
"N 	c #140C0F",
"O 	c #130B0D",
"P 	c #3D2B32",
"Q 	c #4B363E",
"R 	c #4D373F",
"S 	c #4D383F",
"T 	c #867250",
"U 	c #ECD079",
"V 	c #F4D87D",
"W 	c #EDD179",
"X 	c #877350",
"Y 	c #4F3E43",
"Z 	c #4F3D41",
"` 	c #C8A648",
" .	c #F1CA4E",
"..	c #EEC74D",
"+.	c #B19345",
"@.	c #56423D",
"#.	c #45333B",
"$.	c #32252A",
"%.	c #30250B",
"&.	c #150F01",
"*.	c #201518",
"=.	c #302126",
"-.	c #35252B",
";.	c #3B2930",
">.	c #3A282F",
",.	c #36262C",
"'.	c #322228",
").	c #422F36",
"!.	c #48323D",
"~.	c #8C7751",
"{.	c #ECD077",
"].	c #F4D77A",
"^.	c #EBCE75",
"/.	c #897450",
"(.	c #46323D",
"_.	c #54403E",
":.	c #C9A847",
"<.	c #F2CB4C",
"[.	c #F3CB4C",
"}.	c #D0AE47",
"|.	c #624D3D",
"1.	c #44333C",
"2.	c #6F5834",
"3.	c #947715",
"4.	c #050300",
"5.	c #2E2025",
"6.	c #443037",
"7.	c #4C373F",
"8.	c #4A353D",
"9.	c #39282F",
"0.	c #35282C",
"a.	c #423037",
"b.	c #4A363E",
"c.	c #A89259",
"d.	c #F1D475",
"e.	c #F3D676",
"f.	c #EDD073",
"g.	c #826F4C",
"h.	c #47353C",
"i.	c #54403C",
"j.	c #D8B446",
"k.	c #F2CA49",
"l.	c #DEB946",
"m.	c #6D573D",
"n.	c #47363B",
"o.	c #AD8B30",
"p.	c #BE9B1A",
"q.	c #423404",
"r.	c #312127",
"s.	c #47323A",
"t.	c #4C363E",
"u.	c #4E3B41",
"v.	c #5B4D4E",
"w.	c #312429",
"x.	c #49363C",
"y.	c #BCA45E",
"z.	c #F3D572",
"A.	c #E4C86D",
"B.	c #665443",
"C.	c #45333C",
"D.	c #705A3D",
"E.	c #E4BE44",
"F.	c #F1C945",
"G.	c #DDB843",
"H.	c #614D3B",
"I.	c #4B3A3A",
"J.	c #C9A32A",
"K.	c #CFA81C",
"L.	c #372B03",
"M.	c #4B353D",
"N.	c #49353D",
"O.	c #56444A",
"P.	c #6F6061",
"Q.	c #413538",
"R.	c #604F40",
"S.	c #DEC267",
"T.	c #F3D56E",
"U.	c #D9BD64",
"V.	c #58463F",
"W.	c #42323B",
"X.	c #997D3D",
"Y.	c #EFC741",
"Z.	c #F1C941",
"`.	c #F2C941",
" +	c #D7B340",
".+	c #59463A",
"++	c #654F37",
"@+	c #E0B625",
"#+	c #CCA61B",
"$+	c #392D03",
"%+	c #3B292F",
"&+	c #48353D",
"*+	c #47343C",
"=+	c #524147",
"-+	c #736364",
";+	c #2F2429",
">+	c #867149",
",+	c #F2D26A",
"'+	c #F3D36A",
")+	c #B39A55",
"!+	c #45343A",
"~+	c #44343A",
"{+	c #B9993C",
"]+	c #F0C83E",
"^+	c #453639",
"/+	c #A48530",
"(+	c #EBBF21",
"_+	c #AB8B16",
":+	c #2D1F23",
"<+	c #48343C",
"[+	c #3A242D",
"}+	c #2B111D",
"|+	c #210011",
"1+	c #220412",
"2+	c #2D1822",
"3+	c #3C2B32",
"4+	c #46333B",
"5+	c #46343C",
"6+	c #5A494E",
"7+	c #66595A",
"8+	c #3A2B32",
"9+	c #BEA456",
"0+	c #F3D265",
"a+	c #F3D366",
"b+	c #EECE64",
"c+	c #786543",
"d+	c #40313A",
"e+	c #634F3A",
"f+	c #E1BB3A",
"g+	c #F0C83A",
"h+	c #EDC43A",
"i+	c #7B6439",
"j+	c #413238",
"k+	c #D3AC27",
"l+	c #EABF21",
"m+	c #7C640E",
"n+	c #46323A",
"o+	c #4E4348",
"p+	c #737272",
"q+	c #BDBDBD",
"r+	c #DFDFDF",
"s+	c #EBEBEB",
"t+	c #E4E4E4",
"u+	c #C5C5C5",
"v+	c #7D7D7D",
"w+	c #3F3E3E",
"x+	c #36282F",
"y+	c #44333B",
"z+	c #615155",
"A+	c #3E3436",
"B+	c #6F5D41",
"C+	c #E8C85E",
"D+	c #F2D161",
"E+	c #D6B958",
"F+	c #49393A",
"G+	c #3E2F39",
"H+	c #977C38",
"I+	c #EFC736",
"J+	c #D4B036",
"K+	c #403338",
"L+	c #846A33",
"M+	c #E9BD22",
"N+	c #D1AA1D",
"O+	c #392C03",
"P+	c #33242A",
"Q+	c #443038",
"R+	c #828080",
"S+	c #DCDCDC",
"T+	c #FDFDFD",
"U+	c #FFFFFF",
"V+	c #E5E5E5",
"W+	c #979797",
"X+	c #100007",
"Y+	c #3F2F36",
"Z+	c #4B3B41",
"`+	c #5D4F51",
" @	c #281B29",
".@	c #B4994D",
"+@	c #F3D15C",
"@@	c #F2D05C",
"#@	c #EECD5B",
"$@	c #8A7543",
"%@	c #3F3139",
"&@	c #423438",
"*@	c #CFAB34",
"=@	c #EFC632",
"-@	c #EAC232",
";@	c #826A36",
">@	c #4C3C36",
",@	c #D5AC27",
"'@	c #8D7210",
")@	c #9A812A",
"!@	c #E9C039",
"~@	c #ECC339",
"{@	c #AA8F30",
"]@	c #38272E",
"^@	c #49383F",
"/@	c #9B9A9A",
"(@	c #FBFBFB",
"_@	c #FCFCFC",
":@	c #B5B5B5",
"<@	c #242123",
"[@	c #3D2E35",
"}@	c #42323A",
"|@	c #5E5053",
"1@	c #352B2F",
"2@	c #52423A",
"3@	c #E6C454",
"4@	c #F2CF57",
"5@	c #D0B14E",
"6@	c #3E3038",
"7@	c #907635",
"8@	c #EBC32E",
"9@	c #EEC52E",
"0@	c #EEC52D",
"a@	c #BA9932",
"b@	c #3A2E37",
"c@	c #9B7E30",
"d@	c #EDC121",
"e@	c #C6A11B",
"f@	c #B5962F",
"g@	c #F0C22B",
"h@	c #EFC229",
"i@	c #D9B53A",
"j@	c #3E3E3E",
"k@	c #9B9B9B",
"l@	c #B4B4B4",
"m@	c #A5A5A5",
"n@	c #5B595A",
"o@	c #2F2126",
"p@	c #8C8B8B",
"q@	c #F9F9F9",
"r@	c #B1B1B1",
"s@	c #0D0006",
"t@	c #403139",
"u@	c #4A3C41",
"v@	c #493E40",
"w@	c #3F3137",
"x@	c #B69A47",
"y@	c #F2CE52",
"z@	c #F1CD52",
"A@	c #7D693D",
"B@	c #3C2F37",
"C@	c #493A37",
"D@	c #DFB82B",
"E@	c #EEC429",
"F@	c #E5BD2A",
"G@	c #453736",
"H@	c #4B3C35",
"I@	c #E6BB23",
"J@	c #DFB51F",
"K@	c #A0852B",
"L@	c #E8BF35",
"M@	c #EBC135",
"N@	c #BB9C34",
"O@	c #BCBCBC",
"P@	c #F7F7F7",
"Q@	c #D1D1D1",
"R@	c #6D6D6D",
"S@	c #3B2B32",
"T@	c #564D50",
"U@	c #F0F0F0",
"V@	c #F8F8F8",
"W@	c #737373",
"X@	c #2E2329",
"Y@	c #4C4043",
"Z@	c #3C2E36",
"`@	c #7A663D",
" #	c #EDC94B",
".#	c #F1CD4C",
"+#	c #C4A645",
"@#	c #3D3037",
"##	c #362B37",
"$#	c #A98B30",
"%#	c #EEC525",
"&#	c #EDC425",
"*#	c #EEC425",
"=#	c #907531",
"-#	c #392E36",
";#	c #C7A129",
">#	c #E8BD20",
",#	c #251C02",
"'#	c #E6E6E6",
")#	c #FEFEFE",
"!#	c #F4F4F4",
"~#	c #797979",
"{#	c #C4C4C4",
"]#	c #1A1418",
"^#	c #3C2F36",
"/#	c #44393C",
"(#	c #3B2E36",
"_#	c #3A2D38",
":#	c #D8B644",
"<#	c #F1CB47",
"[#	c #E0BD45",
"}#	c #5C4C38",
"|#	c #614E35",
"1#	c #EBC121",
"2#	c #EDC320",
"3#	c #C4A029",
"4#	c #352B36",
"5#	c #A6872E",
"6#	c #382C03",
"7#	c #D4D4D4",
"8#	c #E3E3E3",
"9#	c #201F1F",
"0#	c #382B33",
"a#	c #3F3438",
"b#	c #392C37",
"c#	c #9E833C",
"d#	c #F2CC42",
"e#	c #F1CB42",
"f#	c #EFC842",
"g#	c #7B6638",
"h#	c #4C3D35",
"i#	c #D7B123",
"j#	c #ECC21D",
"k#	c #D8B222",
"l#	c #4A3C34",
"m#	c #8D7230",
"n#	c #E3B821",
"o#	c #EEEEEE",
"p#	c #CCCCCC",
"q#	c #626262",
"r#	c #E2E2E2",
"s#	c #6A6A6A",
"t#	c #31262D",
"u#	c #3C3136",
"v#	c #3A2E35",
"w#	c #3B2F37",
"x#	c #625038",
"y#	c #ECC53D",
"z#	c #F1C93D",
"A#	c #F2CA3D",
"B#	c #AE9039",
"C#	c #423536",
"D#	c #C5A125",
"E#	c #ECC118",
"F#	c #E0B71D",
"G#	c #635133",
"H#	c #7D6532",
"I#	c #CEA720",
"J#	c #C7C7C7",
"K#	c #DDDDDD",
"L#	c #EDEDED",
"M#	c #F5F5F5",
"N#	c #383838",
"O#	c #8B8B8B",
"P#	c #2D2228",
"Q#	c #382C33",
"R#	c #3A2E36",
"S#	c #3A2F37",
"T#	c #504136",
"U#	c #DAB537",
"V#	c #F0C837",
"W#	c #D3B037",
"X#	c #302736",
"Y#	c #3A2F35",
"Z#	c #B69527",
"`#	c #EBC015",
" $	c #E5BB18",
".$	c #725D31",
"+$	c #6D5933",
"@$	c #AE8D1C",
"#$	c #DBDBDB",
"$$	c #BBBBBB",
"%$	c #8F8F8F",
"&$	c #F2F2F2",
"*$	c #6B6B6B",
"=$	c #070707",
"-$	c #7F7F7F",
";$	c #C9C9C9",
">$	c #808080",
",$	c #2F232B",
"'$	c #32272F",
")$	c #403436",
"!$	c #C8A534",
"~$	c #F0C732",
"{$	c #EBC233",
"]$	c #362C35",
"^$	c #382D35",
"/$	c #A98928",
"($	c #EABF11",
"_$	c #EBC011",
":$	c #E8BE12",
"<$	c #7A6330",
"[$	c #5F4D34",
"}$	c #7A6217",
"|$	c #D5D5D5",
"1$	c #CBCBCB",
"2$	c #3D3D3D",
"3$	c #9E9E9E",
"4$	c #EFEFEF",
"5$	c #B8B8B8",
"6$	c #C3C3C3",
"7$	c #444444",
"8$	c #32272E",
"9$	c #352A31",
"0$	c #B59532",
"a$	c #F0C52D",
"b$	c #EEC42D",
"c$	c #635034",
"d$	c #372D35",
"e$	c #A28429",
"f$	c #E9BE0E",
"g$	c #EABF0E",
"h$	c #7D652F",
"i$	c #433733",
"j$	c #261E0F",
"k$	c #E8E8E8",
"l$	c #FAFAFA",
"m$	c #E1E1E1",
"n$	c #191518",
"o$	c #32282F",
"p$	c #382E36",
"q$	c #A18330",
"r$	c #EFC428",
"s$	c #F0C528",
"t$	c #EEC428",
"u$	c #7C6533",
"v$	c #9F8129",
"w$	c #E9BE0B",
"x$	c #EABF0A",
"y$	c #E8BD0C",
"z$	c #7B642F",
"A$	c #2E262E",
"B$	c #080709",
"C$	c #B9B9B9",
"D$	c #A0A0A0",
"E$	c #251D23",
"F$	c #8D7231",
"G$	c #EEC224",
"H$	c #EFC324",
"I$	c #826A31",
"J$	c #A28328",
"K$	c #E9BD08",
"L$	c #EABE07",
"M$	c #E6BA0C",
"N$	c #765F30",
"O$	c #201C21",
"P$	c #C2C2C2",
"Q$	c #D0D0D0",
"R$	c #2C2428",
"S$	c #CACACA",
"T$	c #424142",
"U$	c #362C34",
"V$	c #7F6731",
"W$	c #EEC120",
"X$	c #EFC31F",
"Y$	c #806831",
"Z$	c #A78826",
"`$	c #E8BD06",
" %	c #E9BE05",
".%	c #DFB60E",
"+%	c #66532C",
"@%	c #070A0B",
"#%	c #B2B2B2",
"$%	c #CDCDCD",
"%%	c #413E40",
"&%	c #5C5559",
"*%	c #5A5A5A",
"=%	c #2F252C",
"-%	c #766031",
";%	c #EDC01C",
">%	c #EFC11B",
",%	c #735C31",
"'%	c #B18F23",
")%	c #E9BD03",
"!%	c #D8AF10",
"~%	c #45391E",
"{%	c #9F9F9F",
"]%	c #CFCFCF",
"^%	c #959595",
"/%	c #322A2F",
"(%	c #3D3038",
"_%	c #5A5558",
":%	c #2E252C",
"<%	c #745D31",
"[%	c #EDBF18",
"}%	c #EFC017",
"|%	c #4D3E34",
"1%	c #3C3135",
"2%	c #BC9820",
"3%	c #E9BD02",
"4%	c #C39A0F",
"5%	c #000910",
"6%	c #4C3A3E",
"7%	c #3F353C",
"8%	c #908E90",
"9%	c #E4E3E4",
"0%	c #F6F6F6",
"a%	c #A1A1A1",
"b%	c #3A3639",
"c%	c #342A32",
"d%	c #7B6230",
"e%	c #EDBF15",
"f%	c #EFC014",
"g%	c #DFB31A",
"h%	c #2D2635",
"i%	c #443734",
"j%	c #CAA41A",
"k%	c #EAB501",
"l%	c #8D670F",
"m%	c #533B43",
"n%	c #362A33",
"o%	c #3A3137",
"p%	c #706D6F",
"q%	c #8A898A",
"r%	c #919091",
"s%	c #8C8A8B",
"t%	c #747273",
"u%	c #3A3439",
"v%	c #2D222B",
"w%	c #84692E",
"x%	c #EDBE11",
"y%	c #EEBF10",
"z%	c #EFBF0F",
"A%	c #C19B22",
"B%	c #312835",
"C%	c #4C3E34",
"D%	c #D9B010",
"E%	c #EAB601",
"F%	c #C59001",
"G%	c #5D4047",
"H%	c #47353D",
"I%	c #352B33",
"J%	c #342B32",
"K%	c #94762C",
"L%	c #EDBD0D",
"M%	c #EEBE0D",
"N%	c #EFBF0C",
"O%	c #95762B",
"P%	c #352B35",
"Q%	c #604C32",
"R%	c #EAB401",
"S%	c #D39A01",
"T%	c #5A4046",
"U%	c #292128",
"V%	c #A78528",
"W%	c #EDBD0B",
"X%	c #EEBD0A",
"Y%	c #E7B80F",
"Z%	c #6C5531",
"`%	c #312934",
" &	c #9F7521",
".&	c #CB9400",
"+&	c #493338",
"@&	c #594248",
"#&	c #3E3139",
"$&	c #30272E",
"%&	c #282127",
"&&	c #31272F",
"*&	c #382E35",
"=&	c #BC9522",
"-&	c #EEBD08",
";&	c #D8AB17",
">&	c #4B3D31",
",&	c #1B2029",
"'&	c #976E0E",
")&	c #3F2C00",
"!&	c #38292D",
"~&	c #584349",
"{&	c #41343B",
"]&	c #332A31",
"^&	c #2F262D",
"/&	c #362D34",
"(&	c #1D171C",
"_&	c #463834",
":&	c #CEA41C",
"<&	c #B6901C",
"[&	c #1D2125",
"}&	c #101416",
"|&	c #4B3C41",
"1&	c #4E3F45",
"2&	c #493D43",
"3&	c #3F343B",
"4&	c #31282F",
"5&	c #322930",
"6&	c #231C21",
"7&	c #2B232A",
"8&	c #554433",
"9&	c #E1B212",
"0&	c #EFB70D",
"a&	c #E5A811",
"b&	c #674918",
"c&	c #352C2F",
"d&	c #41363A",
"e&	c #352C30",
"f&	c #221B21",
"g&	c #120E11",
"h&	c #322830",
"i&	c #362D35",
"j&	c #30282F",
"k&	c #0D0A0D",
"l&	c #2C252C",
"m&	c #6F522B",
"n&	c #E4A312",
"o&	c #B9810F",
"p&	c #684605",
"q&	c #060301",
"r&	c #2A2229",
"s&	c #282228",
"t&	c #262328",
"u&	c #27252A",
"v&	c #28272C",
"w&	c #29262C",
"x&	c #252328",
"y&	c #202024",
"z&	c #0F1113",
"A&	c #000204",
"B&	c #50380F",
"C&	c #010101",
"D&	c #010102",
"                                                                                                                                ",
"                                                                                                                                ",
"                                                                                                                                ",
"                                                                                                                                ",
"                                                                                                                                ",
"                                                                                              . + @                             ",
"                                                                        # # #                 $ % & *                           ",
"                                                                    # # #                     = - ; >                           ",
"                                                                  # #                 , ' )   ! . ~                             ",
"                                                                #                   { ] ^ / (                                   ",
"                                                              # #       _ : < [   } | | | | 1 2                                 ",
"                                                            # #       3 4 5 5 < 6 ^ | | | | | 7 #                               ",
"                                                          # #         8 9 5 5 0 a | | | | | | b #                               ",
"                                                          #           c 9 5 5 d e | | | | | | f                                 ",
"                                                          #           g h i j k a | | | | | ] l                                 ",
"                                                        #             m n o p q r s | | s t u v w                               ",
"                                                        #       # x y z A B C D E F G H I J K L M N #                           ",
"                                                        #     O P Q R S T U V V W X Y Z `  ...+.@.#.$.%.&.                      ",
"              # #             #                     *.=.-.;.>.,.-.'.).Q !.~.{.].].^./.(._.:.<.[.}.|.1.2.3.4.                    ",
"            #                     #             5.6.R R R R R 7.7.8.9.0.a.b.c.d.e.e.f.g.h.i.j.k.k.l.m.n.o.p.q.                  ",
"          #                                 r.s.R R R R 7.7.t.Q Q b.b.u.v.w.x.y.z.z.z.A.B.C.D.E.F.F.G.H.I.J.K.L.                ",
"        #                                 >.M.R R R 7.7.7.Q Q Q b.b.N.N.O.P.Q.R.S.T.T.T.U.V.W.X.Y.Z.`. +.+++@+#+$+              ",
"      #                                 %+t.R R 7.7.Q Q Q b.b.N.N.N.&+&+*+=+-+;+>+,+'+'+,+)+!+~+{+]+]+]+{+^+/+(+_+#             ",
"                                      :+8.7.7.7.t.Q Q <+[+}+|+1+2+3+4+*+*+5+6+7+8+9+0+a+a+b+c+d+e+f+g+g+h+i+j+k+l+m+            ",
"                                      n+7.t.Q Q Q N.o+p+q+r+s+t+u+v+w+x+y+#.y+z+A+B+C+D+D+D+E+F+G+H+I+I+I+J+K+L+M+N+O+          ",
"                                    P+8.Q Q b.b.Q+R+S+T+U+U+U+U+U+U+V+W+X+Y+y+Z+`+ @.@+@@@@@#@$@%@&@*@=@=@-@;@>@,@(+'@          ",
")@!@~@{@                            ]@Q b.b.b.^@/@(@U+U+U+U+U+U+U+U+U+_@:@<@[@}@|@1@2@3@4@4@4@5@6@6@7@8@9@0@a@b@c@d@e@#         ",
"f@g@h@i@                    j@k@l@m@n@o@n+N.<+p@q@U+U+U+U+U+U+U+U+U+U+U+T+r@s@t@u@v@w@x@y@y@y@z@A@B@C@D@E@E@F@G@H@I@J@#         ",
"K@L@M@N@                  O@P@U+U+U+T+Q@R@S@T@U@U+U+U+U+U+U+U+U+U+U+U+U+U+V@W@X@t@Y@Z@`@ #.#.#.#+#@###$#%#&#*#=#-#;#>#,#        ",
"                        '#)#U+U+U+U+U+U+!#~#:@U+U+U+U+U+U+U+U+U+U+U+U+U+U+U+{#]#^#/#(#_#:#<#<#<#[#}#b@|#1#2#2#3#4#5#>#6#        ",
"                      7#U+U+U+U+U+U+U+U+U+U@8#U+U+U+U+U+U+U+U+U+U+U+U+U+U+U+!#9#0#a#(#b#c#d#e#e#f#g#-#h#i#j#j#k#l#m#n##         ",
"                      (@U+U+U+U+U+U+U+U+U+!#o#U+U+U+U+U+U+U+p#q#r#U+U+U+U+U+U+s#t#u#v#w#x#y#z#z#A#B#4#C#D#E#E#F#G#H#I##         ",
"                    J#U+U+U+U+U+U+T+K#_@U+L#M#U+U+U+U+U+U+_@N#v+U+U+U+U+U+U+U+O#P#Q#R#S#T#U#V#V#V#W#X#Y#Z#`#`# $.$+$@$          ",
"                    #$U+U+U+U+U+U+$$%$V@U+&$&$U+U+U+U+U+U+U+*$=$-$;$U+U+U+U+U+>$,$'$R#R#)$!$~$~$~${$]$^$/$($_$:$<$[$}$          ",
"                    |$U+U+U+U+U+U+1$2$3$)#q@4$U+U+U+U+U+U+U+L#5$6$P@U+U+U+U+U+7$8$9$-#-#-#0$a$a$a$b$c$d$e$f$g$f$h$i$j$          ",
"                    $$U+U+U+U+U+U+U+k$V@U+l$o#U+U+U+U+U+U+U+U+U+U+U+U+U+U+U+m$n$o$-#-#p$p$q$r$s$s$t$u$d$v$w$x$y$z$A$B$          ",
"                      L#U+U+U+U+U+U+U+U+U+(@C$)#U+U+U+U+U+U+U+U+U+U+U+U+U+T+D$E$p$p$^$^$d$F$G$H$H$G$I$d$J$K$L$M$N$O$            ",
"                      P$T+U+U+U+U+U+U+U+U+Q$R$S$U+U+U+U+U+U+U+U+U+U+U+U+U+8#T$U$^$^$^$d$d$V$W$X$X$W$Y$d$Z$`$ %.%+%@%# #         ",
"                        #%l$U+U+U+U+U+_@$%%%(#&%8#U+U+U+U+U+U+U+U+U+U+U+o#*%=%^$d$d$d$d$d$-%;%>%>%;%,%d$'%)%)%!%~%#             ",
"                          {%;$r#L#k$]%^%/%B@(%(#_%]%)#U+U+U+U+U+U+U+U+S+*$:%d$d$d$d$d$d$d$<%[%}%}%[%|%1%2%3%3%4%5%              ",
"                                    6%%@B@B@B@w#w#7%8%9%0%(@_@(@P@s+a%b%c%d$d$d$d$d$d$d$d$d%e%f%f%g%h%i%j%3%k%l%                ",
"                                      m%w#w#w#S#R#R#n%o%p%q%r%s%t%u%v%d$d$d$d$d$d$d$d$d$d$w%x%y%z%A%B%C%D%E%F%                  ",
"                                      G%H%S#R#R#-#-#-#p$p$^$^$d$d$d$d$d$d$d$d$I%J%d$d$d$d$K%L%M%N%O%P%Q%R%S%                    ",
"                                        T%(%-#-#p$p$^$^$^$d$d$d$d$d$U$I%d$d$d$d$U%d$d$d$d$V%W%X%Y%Z%`% &.&              #       ",
"                                        +&@&#&p$p$^$^$d$d$d$d$d$d$c%$&d$d$d$d$d$%&&&d$d$*&=&-&-&;&>&,&'&)&# # # # # # #         ",
"                                          !&~&{&p$d$d$d$d$d$d$d$]&^&/&d$d$d$d$d$I%(&U$d$_&:&-&-&<&[&}&                          ",
"                                              |&1&2&3&p$d$d$4&^&5&d$d$d$d$d$d$d$d$6&7&d$8&9&0&a&b&                              ",
"                                                  c&d&e&f&g&]#h&U$d$d$d$d$d$d$d$i&j&k&l&m&n&o&p&q&#                             ",
"                                                                  r&s&t&u&v&w&u&x&y&z&A&B&        # # #                         ",
"                                                                          C&D&          #             # # #                     ",
"                                                                            #             # #                                   ",
"                                                                            #               # # #                               ",
"                                                                            # #                 # # # #                         ",
"                                                                              #                                                 ",
"                                                                                #                                               ",
"                                                                                                                                ",
"                                                                                                                                ",
"                                                                                                                                ",
"                                                                                                                                ",
"                                                                                                                                ",
"                                                                                                                                ",
"                                                                                                                                ",
"                                                                                                                                ",
"                                                                                                                                "};
