/* XPM */
static char * grass_xpm[] = {
"16 16 6 1",
" 	c #317145",
".	c #449841",
"+	c #54B043",
"@	c #3E8948",
"#	c #377C46",
"$	c #306F44",
" .. +@@  #+  #. ",
" .. +@.  @+  #. ",
" .@#.@.#$@.  #+ ",
" +@#...#$#.$ #+.",
"#+.@...# .@$#@..",
"#+.@+.@#$.@$#@@.",
"#...+.@  .. #@@.",
"$@.++.@ #+.$#@.+",
"$@.++.@ #+.$ @.+",
"$@..+..##++# @.+",
"#..#++.##.+##@..",
"#+.#++.##.+##@+.",
"#+# +.@##.+##@+.",
"#+# +.@ #.. #@..",
"@.  .@@ #@. #@@.",
"@.  +##  #+ ###@"};
