/* XPM */
static char * cowright_xpm[] = {
"64 64 536 2",
"  	c #0A8D09",
". 	c #1F881E",
"+ 	c #1A8A18",
"@ 	c #726C46",
"# 	c #128B11",
"$ 	c #288426",
"% 	c #21871F",
"& 	c #4A7F33",
"* 	c #B7A637",
"= 	c #778143",
"- 	c #337D31",
"; 	c #D89827",
"> 	c #777A3E",
", 	c #387A35",
"' 	c #4F534D",
") 	c #585555",
"! 	c #666464",
"~ 	c #6F6E6E",
"{ 	c #626260",
"] 	c #1A8919",
"^ 	c #2B822A",
"/ 	c #C19D34",
"( 	c #E5CC00",
"_ 	c #888F3C",
": 	c #3A7838",
"< 	c #EFA406",
"[ 	c #C89C31",
"} 	c #474444",
"| 	c #3B3838",
"1 	c #585655",
"2 	c #6E6D6D",
"3 	c #818181",
"4 	c #516C50",
"5 	c #79783E",
"6 	c #ECB900",
"7 	c #9DA235",
"8 	c #1D881B",
"9 	c #347C32",
"0 	c #41713F",
"a 	c #496846",
"b 	c #4D624B",
"c 	c #4A6847",
"d 	c #41723F",
"e 	c #327E30",
"f 	c #446F41",
"g 	c #F1A500",
"h 	c #ECBA00",
"i 	c #777D41",
"j 	c #212020",
"k 	c #6E6C6C",
"l 	c #188A17",
"m 	c #BB8839",
"n 	c #A09C3F",
"o 	c #387A36",
"p 	c #716F6F",
"q 	c #A6A6A6",
"r 	c #CCCBCB",
"s 	c #E1E0E0",
"t 	c #E9E9E9",
"u 	c #F0F0F0",
"v 	c #B2B2B2",
"w 	c #000000",
"x 	c #1F1D1D",
"y 	c #282626",
"z 	c #383636",
"A 	c #456542",
"B 	c #6C6D43",
"C 	c #C1A933",
"D 	c #268524",
"E 	c #292828",
"F 	c #6A6868",
"G 	c #4B6B48",
"H 	c #2F802D",
"I 	c #D79628",
"J 	c #BFA933",
"K 	c #6A6650",
"L 	c #A1A0A0",
"M 	c #DFDFDF",
"N 	c #FFFFFF",
"O 	c #FEFEFE",
"P 	c #A4A4A4",
"Q 	c #2E2C2C",
"R 	c #84653D",
"S 	c #D7AC24",
"T 	c #E2C80B",
"U 	c #50793C",
"V 	c #238622",
"W 	c #504D4D",
"X 	c #403E3D",
"Y 	c #575454",
"Z 	c #545F51",
"` 	c #1B8919",
" .	c #2A8329",
"..	c #437040",
"+.	c #1B891A",
"@.	c #E69D16",
"#.	c #9E7F44",
"$.	c #8F8E8E",
"%.	c #EBEAEA",
"&.	c #BEBEBE",
"*.	c #302E2E",
"=.	c #B1A137",
"-.	c #93943E",
";.	c #3C763A",
">.	c #4A6747",
",.	c #466C43",
"'.	c #7B7E7A",
").	c #E8E8E8",
"!.	c #DCDBDB",
"~.	c #BBBABA",
"{.	c #7C7A7A",
"].	c #4F5F4C",
"^.	c #427040",
"/.	c #4C6549",
"(.	c #A57543",
"_.	c #AAA9A9",
":.	c #FBFBFB",
"<.	c #E1E1E1",
"[.	c #494949",
"}.	c #201F1F",
"|.	c #55524B",
"1.	c #446E41",
"2.	c #495F46",
"3.	c #435B41",
"4.	c #485245",
"5.	c #434040",
"6.	c #454542",
"7.	c #455C43",
"8.	c #3F733D",
"9.	c #6D776C",
"0.	c #F1F1F1",
"a.	c #D2D1D1",
"b.	c #B4B3B3",
"c.	c #C0C0C0",
"d.	c #EEEEEE",
"e.	c #383838",
"f.	c #4D634A",
"g.	c #535950",
"h.	c #178A16",
"i.	c #D6D6D6",
"j.	c #A2A2A2",
"k.	c #0C0B0B",
"l.	c #525A4F",
"m.	c #357C33",
"n.	c #496946",
"o.	c #138B12",
"p.	c #747E73",
"q.	c #F8F8F8",
"r.	c #C9C9C9",
"s.	c #3D3A3A",
"t.	c #515D4E",
"u.	c #178A15",
"v.	c #999A98",
"w.	c #363434",
"x.	c #40733D",
"y.	c #B0B1AF",
"z.	c #CBCBCB",
"A.	c #211F1F",
"B.	c #434D40",
"C.	c #198A18",
"D.	c #446E42",
"E.	c #565353",
"F.	c #258524",
"G.	c #298327",
"H.	c #8B948A",
"I.	c #E0E0E0",
"J.	c #F7F7F7",
"K.	c #F7F6F6",
"L.	c #FAFAFA",
"M.	c #141313",
"N.	c #262424",
"O.	c #3C3939",
"P.	c #475F45",
"Q.	c #158B13",
"R.	c #298427",
"S.	c #2A8328",
"T.	c #3D763A",
"U.	c #486A45",
"V.	c #4E624B",
"W.	c #565453",
"X.	c #4B6648",
"Y.	c #4B6549",
"Z.	c #D1D1D1",
"`.	c #656262",
" +	c #7B7979",
".+	c #E7E7E7",
"++	c #F2F2F2",
"@+	c #E2E2E2",
"#+	c #A1A1A1",
"$+	c #343333",
"%+	c #545651",
"&+	c #3B7738",
"*+	c #525B4F",
"=+	c #4D4A4A",
"-+	c #454242",
";+	c #393737",
">+	c #4F4D4D",
",+	c #B3B3B3",
"'+	c #A7A6A6",
")+	c #F5F5F5",
"!+	c #868585",
"~+	c #919090",
"{+	c #E5E5E5",
"]+	c #7F7D7D",
"^+	c #5C5959",
"/+	c #DCDCDC",
"(+	c #ECECEC",
"_+	c #979797",
":+	c #111010",
"<+	c #436F41",
"[+	c #545151",
"}+	c #424040",
"|+	c #2D2B2B",
"1+	c #040303",
"2+	c #CFCFCF",
"3+	c #CECDCD",
"4+	c #8E8C8C",
"5+	c #5A6858",
"6+	c #377A35",
"7+	c #3F3D3D",
"8+	c #0E0D0D",
"9+	c #616161",
"0+	c #868484",
"a+	c #258523",
"b+	c #DEDEDE",
"c+	c #B8B7B7",
"d+	c #848383",
"e+	c #F3F3F3",
"f+	c #A5A4A4",
"g+	c #151414",
"h+	c #848282",
"i+	c #515C4E",
"j+	c #4F604C",
"k+	c #413E3E",
"l+	c #DDDDDD",
"m+	c #9F9E9E",
"n+	c #C6C6C6",
"o+	c #298328",
"p+	c #1B1A1A",
"q+	c #C7C7C7",
"r+	c #C3C3C3",
"s+	c #40723E",
"t+	c #4B4949",
"u+	c #A9A9A9",
"v+	c #F6F6F6",
"w+	c #505F4D",
"x+	c #BBBBBB",
"y+	c #ADACAC",
"z+	c #C5C5C5",
"A+	c #E3E3E3",
"B+	c #C8C7C7",
"C+	c #BEBBB2",
"D+	c #B2A98A",
"E+	c #C2B787",
"F+	c #CCBF84",
"G+	c #CCBF83",
"H+	c #BEB388",
"I+	c #B5B3AE",
"J+	c #8A8989",
"K+	c #D7D7D7",
"L+	c #F4F4F4",
"M+	c #6F6D6D",
"N+	c #B3B2B2",
"O+	c #AC9B5F",
"P+	c #D1B733",
"Q+	c #ECCF20",
"R+	c #F8DA0F",
"S+	c #EACE21",
"T+	c #CCB336",
"U+	c #A79760",
"V+	c #D1D0D0",
"W+	c #080707",
"X+	c #868686",
"Y+	c #DBDBDB",
"Z+	c #BABABA",
"`+	c #AC9342",
" @	c #EFCB1C",
".@	c #F8D30E",
"+@	c #E8C622",
"@@	c #A58E44",
"#@	c #BFBEBE",
"$@	c #377B35",
"%@	c #524F4F",
"&@	c #454545",
"*@	c #A0A0A0",
"=@	c #C8C8C8",
"-@	c #CEAA34",
";@	c #F7CC0D",
">@	c #CBA836",
",@	c #615F5F",
"'@	c #0F8C0E",
")@	c #909090",
"!@	c #DADADA",
"~@	c #EDEDED",
"{@	c #B7943E",
"]@	c #F7C50C",
"^@	c #E9BA0B",
"/@	c #F3C10C",
"(@	c #EABA0B",
"_@	c #B5933F",
":@	c #367B34",
"<@	c #B8B8B8",
"[@	c #E2AE26",
"}@	c #F6BC0A",
"|@	c #785A02",
"1@	c #A67E04",
"2@	c #9C7704",
"3@	c #775902",
"4@	c #E0AC28",
"5@	c #787878",
"6@	c #CC9934",
"7@	c #F5B408",
"8@	c #8B6402",
"9@	c #775502",
"0@	c #5F4401",
"a@	c #9B7003",
"b@	c #C79636",
"c@	c #3D753B",
"d@	c #7C7C7C",
"e@	c #AAAAAA",
"f@	c #D8D8D8",
"g@	c #7C6D5F",
"h@	c #E9A51C",
"i@	c #F5AC06",
"j@	c #E7A205",
"k@	c #D99704",
"l@	c #D49304",
"m@	c #EDA605",
"n@	c #E6A31F",
"o@	c #675F4E",
"p@	c #535151",
"q@	c #706761",
"r@	c #C78B35",
"s@	c #F3A304",
"t@	c #F4A403",
"u@	c #F1A20A",
"v@	c #C48937",
"w@	c #625C4F",
"x@	c #20871F",
"y@	c #585858",
"z@	c #BCBCBC",
"A@	c #6F5C4F",
"B@	c #B87E3C",
"C@	c #D98E28",
"D@	c #F29B02",
"E@	c #F39B01",
"F@	c #DA8E28",
"G@	c #6F5C50",
"H@	c #545751",
"I@	c #737373",
"J@	c #9D9D9D",
"K@	c #BFBFBF",
"L@	c #7D7B7B",
"M@	c #87644B",
"N@	c #9B6D45",
"O@	c #AC7540",
"P@	c #9F6F44",
"Q@	c #8A664A",
"R@	c #4F4C4C",
"S@	c #403D3D",
"T@	c #ADADAD",
"U@	c #8F8F8F",
"V@	c #505050",
"W@	c #B5B5B5",
"X@	c #3D3B3B",
"Y@	c #3A3838",
"Z@	c #2A2828",
"`@	c #242222",
" #	c #E4E4E4",
".#	c #ACACAC",
"+#	c #252424",
"@#	c #6F6F6F",
"##	c #FDFDFD",
"$#	c #1E1E1E",
"%#	c #343232",
"&#	c #2F2D2D",
"*#	c #D9D9D9",
"=#	c #9C9C9C",
"-#	c #7B7B7B",
";#	c #9B9B9B",
">#	c #377B34",
",#	c #3E743C",
"'#	c #474545",
")#	c #1C891B",
"!#	c #555252",
"~#	c #3E3D3D",
"{#	c #50504D",
"]#	c #4C644A",
"^#	c #42713F",
"/#	c #CAC9C9",
"(#	c #C0B8B7",
"_#	c #A68A84",
":#	c #EAEAEA",
"<#	c #353333",
"[#	c #BEB3B1",
"}#	c #E4A797",
"|#	c #F6B6AA",
"1#	c #E2ACA8",
"2#	c #AB898A",
"3#	c #70696A",
"4#	c #2D812B",
"5#	c #AF9F9C",
"6#	c #E9AB9B",
"7#	c #F6B7AB",
"8#	c #F6BAB6",
"9#	c #F6BEC0",
"0#	c #F6C1CA",
"a#	c #F3C2D1",
"b#	c #D5ADBD",
"c#	c #AD909C",
"d#	c #837178",
"e#	c #5D5A5A",
"f#	c #969895",
"g#	c #0C0C0C",
"h#	c #4F5A4C",
"i#	c #C5C4C4",
"j#	c #BB9084",
"k#	c #F2B0A0",
"l#	c #F6B7AC",
"m#	c #F6BBB7",
"n#	c #F6BEC1",
"o#	c #F6C2CB",
"p#	c #F7C5D5",
"q#	c #F7C8DB",
"r#	c #F7C8DC",
"s#	c #E6BBCD",
"t#	c #61605B",
"u#	c #BDBDBD",
"v#	c #D19987",
"w#	c #F6B3A3",
"x#	c #F6B7AD",
"y#	c #F6BBB8",
"z#	c #F6BFC2",
"A#	c #F7C2CC",
"B#	c #F7C6D6",
"C#	c #EFC2D5",
"D#	c #796D6F",
"E#	c #C0C0BF",
"F#	c #908F8F",
"G#	c #268525",
"H#	c #C1C0C0",
"I#	c #AE847B",
"J#	c #EEB2A9",
"K#	c #F6BBB9",
"L#	c #F6BFC3",
"M#	c #F7C3CD",
"N#	c #918083",
"O#	c #748A73",
"P#	c #BDBCBC",
"Q#	c #989B98",
"R#	c #9E9A9A",
"S#	c #E2B1B5",
"T#	c #EBBAC4",
"U#	c #E9BCCB",
"V#	c #F3C5D9",
"W#	c #D9B1C2",
"X#	c #C9A5B4",
"Y#	c #278425",
"Z#	c #E6E6E6",
"`#	c #CCCCCC",
" $	c #42413F",
".$	c #2F2C2C",
"+$	c #807F7E",
"@$	c #706E6E",
"#$	c #8E8D8D",
"$$	c #F3C0CC",
"%$	c #C09CA8",
"&$	c #697061",
"*$	c #AE949C",
"=$	c #C7A3B2",
"-$	c #787F6E",
";$	c #108C0F",
">$	c #4B4848",
",$	c #514F4F",
"'$	c #8D8C8B",
")$	c #979696",
"!$	c #BCBBBB",
"~$	c #8D8B8B",
"{$	c #848883",
"]$	c #373535",
"^$	c #666463",
"/$	c #797878",
"($	c #616060",
"_$	c #4B4847",
":$	c #5C5A5A",
"<$	c #BF9CA8",
"[$	c #75696D",
"}$	c #228720",
"|$	c #238621",
"1$	c #AE939C",
"2$	c #9B8E8B",
"3$	c #4A7E44",
"4$	c #DDB4C5",
"5$	c #C09EAC",
"6$	c #222120",
"7$	c #494645",
"8$	c #5F5D5D",
"9$	c #737272",
"0$	c #828282",
"a$	c #222020",
"b$	c #484544",
"c$	c #2E2D2D",
"d$	c #787777",
"e$	c #4D4B4A",
"f$	c #717070",
"g$	c #838383",
"h$	c #3E753B",
"i$	c #87807A",
"j$	c #585656",
"k$	c #597358",
"l$	c #278426",
"m$	c #272525",
"n$	c #888888",
"o$	c #535050",
"p$	c #808080",
"q$	c #616F60",
"r$	c #727171",
"s$	c #747673",
"t$	c #444E42",
"u$	c #494746",
"v$	c #545150",
"w$	c #646862",
"x$	c #667765",
"y$	c #4D6B4C",
"z$	c #2C822A",
"A$	c #1D881C",
"B$	c #3E6B3C",
"C$	c #435E42",
"D$	c #4B6048",
"E$	c #50644D",
"F$	c #586A56",
"G$	c #5B6D59",
"H$	c #4E724C",
"I$	c #586B56",
"J$	c #4D744B",
"K$	c #0D8C0C",
"                                                                                                                                ",
"                                                                                                                                ",
"                                                                                                                                ",
"                                                                                                                                ",
"                                                              . .                               + @ .                           ",
"        # $ $ %                                             & * =                               - ; >                           ",
"      , ' ) ! ~ { ]                                       ^ / ( _                               : < [ ^                         ",
"    ^ } | 1 2 3 4                                         5 6 ( 7     8 9 0 a b b b b c d e +   f g h i                         ",
"    f j | 1 2 k ^                                       l m 6 ( n o b p q r s t u v w x y z } A B g h C D                       ",
"    0 E | 1 F G                                         H I 6 J K L M N N N N N N O P w w w w w Q R S T U                       ",
"    V W X Y Z `                          .f f ..9 +.    o @.#.$.%.N N N N N N N N N N &.w w w w w w *.=.-.                      ",
"    f ;.>.,..                           '.).t !.~.{.].^./.(._.:.N N N N N N N N N N N N <.[.w w w w w }.|.f 1./.2.3.4.5.6.7.8.] ",
"  : ^.                                  9.N N N N N 0.a.b.c.:.N N N N N N N N N N N N N N d.e.w w w w w w w w w w w w w w w E f.",
"+ g.h.                                  : i.N N N N N N N N N N N N N N N N N N N N N N N N j.w w w w w w w w w w w w w w w k.l.",
"m.n.                                    o.p.q.N N N N N N N N N N N N N N N N N N N N N N N r.w w w w w w w w w w w w w w w s.: ",
"m.t.u.                                    $ v.O N N N N N N N N N N N N N N N N N N N N N N 0.w w w w w w w w w w w w w w w.f   ",
"o.t.g.x.]                                   ^ y.:.N N N N N N N N N N N N N N N N N N N N N N z.w w w w w w w w w w w A.B.m.    ",
"  C.D.E.E.,.F.                                G.H.I.J.N N N N N N N K.t L.N N N N N N N N N N N <.3 w w w w w M.N.O.P.: Q.      ",
"      R./.E.E.0       S.T.U.V.E.E.E.E.E.E.W.b X.f Y.Z.N N N N N N Z.`. +k .+N N N N N N N N N t ++N @+#+w w $+..$ Q.            ",
"          m.%+E.0 &+*+E.E.=+-+5.;+w.>+,+b.'+$.p E.E.Z.N N N N N )+!+d.N s ~+N N N N N N N {+]+E.^+/+N N (+_+:+<+                ",
"            - E.E.[+}+|+1+w w w w [.@+N N N N N :.2+Z.N N N N N 3+.+N N N a.L.N N N N N q.4+i.O r $.N N N N 0.5+                ",
"            6+E.7+8+w w w w w w 9+0.N N N N N N N ).Z.N N N N N N N N N N N N N N N N N J.++N N N 0+:.N N N N $.                ",
"          a+%+w.w w w w w w w w b+N N N N N N N N t c+N N N N N N N N N N N N N N N N N N N N N N I.++N N N N d+                ",
"          b }+w w w w w w w w w N N N N N N N N N e+f+N N N N N N N N N N N N N N N N N N N N N N N N N N N N E.                ",
"        m.[+g+w w w w w w w w w :.N N N N N N N N N h+N N N N N N N N N N N N N N N N N N N N N N N N N N N (+i+                ",
"        j+k+w w w w w w w w w w l+N N N N N N N N N m+u N N N N N N N N N N N N N N N N N N N N N N N N N N n+U.                ",
"      o+E.p+w w w w w w w w w w r.N N N N N N N N N q+r+N N N N N N N N N N N N N N N N N N N N N N N N N N 0+,                 ",
"      s+t+w w w w w w w w w w w u+N N N N N N N N N v+p :.N N N N N N N N N N N N N N N N N N N N N N N N <.%+h.                ",
"      w+O.w w w w w w w w w w w x+N N N N N N N N N N y+z+N N N N N N A+B+C+D+E+F+G+H+D+I+n+@+N N N N N N J+0                   ",
"    u.E.E w w w w w w w w w w w K+N N N N N N N N N N L+M+{+N N d.N+O+P+Q+R+R+R+R+R+R+R+R+S+T+U+b.d.N N V+%++                   ",
"    $ E.W+w w w w w w w w w w X+N N N N N N N N N N N N Y+`.I.Z+`+ @.@.@.@.@.@.@.@.@.@.@.@.@.@.@+@@@#@u `.T.                    ",
"    $@%@w w w w &@*@=@Y+.+.+.+:.N N N N N N N N N N N N N Z.E.-@;@;@;@;@;@;@;@;@;@;@;@;@;@;@;@;@;@;@>@,@j+'@                    ",
"    , =+w w w )@L.N N N N N N N N N 0.!@z.Z.~@N N N N N N K+{@]@]@]@]@^@/@]@]@]@]@]@]@]@]@]@/@(@]@]@]@_@:@                      ",
"    , =+w w w v+N N N N N N N v+<@9+w w w w w q N N N N N b.[@}@}@}@}@|@1@}@}@}@}@}@}@}@}@}@2@3@}@}@}@4@f                       ",
"    , =+w w 5@N N N N N N N n+e.w w w w w w w w {+N N N N c.6@7@7@7@7@8@9@7@7@7@7@7@7@7@7@7@0@a@7@7@7@b@c@                      ",
"    , =+w w d@N N N N N N e@w w w w w w w w w w f@N N N N L+g@h@i@i@i@j@k@i@i@i@i@i@i@i@i@i@l@m@i@i@n@o@+                       ",
"    ^ p@w w j.N N N N N i.w w w w w w w w w w w L+N N N N N {+q@r@s@t@t@t@t@t@t@t@t@t@t@t@t@t@t@u@v@w@^                         ",
"    x@E.y@q J.N N N N N )@w w w w w w w w w w z@N N N N N N N ++P A@B@C@D@E@E@E@E@E@E@E@E@E@F@B@G@,..                           ",
"      H@r N N N N N N N I@w w w w w w w w w J@L.N N N N N N N N N ~@K@L@E.M@N@O@O@O@O@P@Q@E.R@S@b                               ",
"      >.T@N N N N N N N U@w w w w w w w w V@L.N N N N N N N N N N N N N L+M W@X@5.5.Y@w.Z@g+w `@X.                              ",
"      T.{.N N N N N N N  #e.w w w w w w w .#N N N N N N N N N N N N N N N N .+w w w w w w w w +#f                               ",
"      $ E.).N N N N N N N @+@#w w w w w w @+N N N N N N N N N N N N N N N N ##$#w w w w w w w %#x.                              ",
"        i+&#*#N N N N N N N N /+<@=#-#;#K+N N N N N N N N N N N N N N N N N N U@w w w w w w w s.>#                              ",
"        ,#'#)@N N N N N N N N N N N N N N N N N N N N N N N N N N N N N N N N K@w w w w w w w '#$                               ",
"        )#!#~#N N N N N N N N N N N N N N N N N N N N N N N N N N N N N N N N v+e.w w w w w w {#                                ",
"          ]#J+N N N N N N N N N N N N N N N N N N N N N N N N N N N N N N N N N @+e.w w w w p+X.                                ",
"          ^#/#N N N N N N N N N (#_#b.I.##N N N N N N N N N N N N N N N N N N N N :#9+w w w <#c@                                ",
"          , b.N N N N N N N :.[#}#|#1#2#3#m+n+@+J.N N N N N N N N N N N N N N N N N 0.9+w w '#$                                 ",
"          4#b.N N N N N N ++5#6#7#8#9#0#a#b#c#d#E.e#$.$.$.$.f#N N N N N N N v+N N N N A+w g#h#                                  ",
"          $ b.N N N N N i#j#k#l#m#n#o#p#q#r#r#s#t#^ $ $ $ C.e {+N N N N N N u#N N N N N z.*.8.                                  ",
"          . b.N N N N {+v#w#x#y#z#A#B#q#r#r#C#D#^           o.E#N N N N N N b.N N N N N N F#G#                                  ",
"            b.N N N N H#I#J#K#L#M#B#r#r#r#r#N#$               O#N N N N N N P#N N N N N )+f.                                    ",
"            Q#t N N N #@A+R#S#T#U#r#r#V#W#r#X#Y#              e Z#N N N N N r+N N N N N `#m.                                    ",
"             $.$W +$=#@$#$L@$$%$8.&$V#*$0 =$r#-$              ;$>$,$'$)$W@!$=+W ~$)$W@!${$;$                                    ",
"          . ]$.$W ^$/$($_$:$<$[$}$|$1$2$  3$4$5$]               X@6$7$8$9$0$S@a$b$8$9$0$0                                       ",
"          $ c$.$W ^$/$d$e$,@f$g$h$  $ ^     o i$+               X@6$7$8$9$X+j$a$b$8$9$X+k$                                      ",
"          l$m$.$W ^$/$n$o$,@9$p$q$                              X@6$7$8$9$X+r$a$b$8$9$X+s$                                      ",
"          . t$u$v$e#w$x$y$, , , z$                              X@6$7$8$9$X+p$m$b$8$9$X+p$A$                                    ",
"                                                                B$C$D$E$F$G$H$C$D$E$I$G$J$K$                                    ",
"                                                                                                                                ",
"                                                                                                                                ",
"                                                                                                                                ",
"                                                                                                                                ",
"                                                                                                                                "};
