/* XPM */
static char * bush_xpm[] = {
"64 64 707 2",
"  	c #0A8D09",
". 	c #087C07",
"+ 	c #0A8A09",
"@ 	c #108809",
"# 	c #0E7707",
"$ 	c #077A07",
"% 	c #138308",
"& 	c #067106",
"* 	c #1B7E0C",
"= 	c #1C760C",
"- 	c #127205",
"; 	c #2D6014",
"> 	c #104D04",
", 	c #098308",
"' 	c #098007",
") 	c #086C05",
"! 	c #276A10",
"~ 	c #184005",
"{ 	c #035203",
"] 	c #256D10",
"^ 	c #2C5815",
"/ 	c #0A2B01",
"( 	c #1E6E0C",
"_ 	c #305F18",
": 	c #0A2001",
"< 	c #0B7D07",
"[ 	c #1A7D0B",
"} 	c #2F6017",
"| 	c #32601A",
"1 	c #2A5613",
"2 	c #054902",
"3 	c #0F8808",
"4 	c #157C09",
"5 	c #098908",
"6 	c #148309",
"7 	c #098608",
"8 	c #1E7A0D",
"9 	c #2B6014",
"0 	c #20450B",
"a 	c #074201",
"b 	c #1B6F0B",
"c 	c #276111",
"d 	c #416F26",
"e 	c #33611A",
"f 	c #295212",
"g 	c #316019",
"h 	c #315F18",
"i 	c #315E19",
"j 	c #36641D",
"k 	c #2F5C16",
"l 	c #296514",
"m 	c #2D6516",
"n 	c #315F19",
"o 	c #295912",
"p 	c #2D6215",
"q 	c #024602",
"r 	c #187909",
"s 	c #193907",
"t 	c #0B2201",
"u 	c #067206",
"v 	c #247310",
"w 	c #326019",
"x 	c #437027",
"y 	c #548234",
"z 	c #669542",
"A 	c #588637",
"B 	c #3F6C24",
"C 	c #3B6821",
"D 	c #3B6921",
"E 	c #35631D",
"F 	c #33611B",
"G 	c #5A8839",
"H 	c #659341",
"I 	c #5A8939",
"J 	c #538134",
"K 	c #5D8B3B",
"L 	c #46732A",
"M 	c #1C3F08",
"N 	c #117E06",
"O 	c #177D08",
"P 	c #098808",
"Q 	c #108608",
"R 	c #173706",
"S 	c #077606",
"T 	c #266C11",
"U 	c #34621B",
"V 	c #528033",
"W 	c #659542",
"X 	c #63913F",
"Y 	c #47742A",
"Z 	c #49762C",
"` 	c #649241",
" .	c #618E3F",
"..	c #659441",
"+.	c #558335",
"@.	c #4D7B2F",
"#.	c #517F32",
"$.	c #34621C",
"%.	c #0E4D03",
"&.	c #168109",
"*.	c #244B0E",
"=.	c #21460C",
"-.	c #659442",
";.	c #5A853C",
">.	c #547E39",
",.	c #446F2B",
"'.	c #4A7430",
").	c #34611B",
"!.	c #45702C",
"~.	c #507935",
"{.	c #34611C",
"].	c #275111",
"^.	c #067306",
"/.	c #17800A",
"(.	c #396621",
"_.	c #3A6622",
":.	c #5C883D",
"<.	c #59833B",
"[.	c #56803A",
"}.	c #547D39",
"|.	c #58823B",
"1.	c #5F8C3E",
"2.	c #598738",
"3.	c #3D6924",
"4.	c #4D7733",
"5.	c #4E7833",
"6.	c #33601B",
"7.	c #245A0F",
"8.	c #187D09",
"9.	c #2E6016",
"0.	c #1F790E",
"a.	c #1C7A0A",
"b.	c #0E6904",
"c.	c #143602",
"d.	c #3C6824",
"e.	c #4B7431",
"f.	c #416E26",
"g.	c #62913F",
"h.	c #629040",
"i.	c #62903F",
"j.	c #406D25",
"k.	c #4F7834",
"l.	c #537C38",
"m.	c #35621D",
"n.	c #22520E",
"o.	c #066F05",
"p.	c #128408",
"q.	c #5C8A3A",
"r.	c #608D3F",
"s.	c #59843B",
"t.	c #639141",
"u.	c #649341",
"v.	c #5B863C",
"w.	c #4D7833",
"x.	c #527B37",
"y.	c #46702D",
"z.	c #244C0F",
"A.	c #2B6714",
"B.	c #3E6A26",
"C.	c #4B7531",
"D.	c #386520",
"E.	c #5B8A3A",
"F.	c #567F3A",
"G.	c #58833B",
"H.	c #557E39",
"I.	c #305E18",
"J.	c #0C6804",
"K.	c #187F0A",
"L.	c #537D38",
"M.	c #4E7834",
"N.	c #4F7B33",
"O.	c #5F8C3F",
"P.	c #37641F",
"Q.	c #2E5B16",
"R.	c #2A5E13",
"S.	c #18800A",
"T.	c #507A36",
"U.	c #639140",
"V.	c #4E7A31",
"W.	c #456F2B",
"X.	c #276611",
"Y.	c #237310",
"Z.	c #16830B",
"`.	c #066B05",
" +	c #073E01",
".+	c #001C00",
"++	c #154E05",
"@+	c #426D29",
"#+	c #618F3F",
"$+	c #61903E",
"%+	c #396720",
"&+	c #3B6723",
"*+	c #3F6A26",
"=+	c #47712E",
"-+	c #48722F",
";+	c #3C6A22",
">+	c #1B5109",
",+	c #098708",
"'+	c #166507",
")+	c #285211",
"!+	c #2F5E16",
"~+	c #57813A",
"{+	c #568436",
"]+	c #507A35",
"^+	c #3D6A23",
"/+	c #3D6B23",
"(+	c #457228",
"_+	c #5C8B3B",
":+	c #2F5D17",
"<+	c #286812",
"[+	c #0E8808",
"}+	c #296912",
"|+	c #2E6017",
"1+	c #639040",
"2+	c #517A37",
"3+	c #406E25",
"4+	c #517E32",
"5+	c #32611A",
"6+	c #075503",
"7+	c #0C8708",
"8+	c #36631E",
"9+	c #557F3A",
"0+	c #5D8A3D",
"a+	c #5E8D3C",
"b+	c #38651F",
"c+	c #396620",
"d+	c #48742C",
"e+	c #59853A",
"f+	c #639241",
"g+	c #527D36",
"h+	c #136606",
"i+	c #077B07",
"j+	c #24590E",
"k+	c #406B27",
"l+	c #47712D",
"m+	c #416C28",
"n+	c #436E2A",
"o+	c #4C7632",
"p+	c #507B34",
"q+	c #61903F",
"r+	c #57823B",
"s+	c #5C873D",
"t+	c #48752B",
"u+	c #22740F",
"v+	c #0C8B09",
"w+	c #4D7632",
"x+	c #568039",
"y+	c #4F7935",
"z+	c #517A36",
"A+	c #527C37",
"B+	c #48732F",
"C+	c #59843C",
"D+	c #5E8A3E",
"E+	c #36631D",
"F+	c #3A6820",
"G+	c #1B4308",
"H+	c #088007",
"I+	c #148409",
"J+	c #2F6117",
"K+	c #3B6722",
"L+	c #4F7A34",
"M+	c #618F3E",
"N+	c #548134",
"O+	c #47752B",
"P+	c #37651E",
"Q+	c #457329",
"R+	c #0C4B03",
"S+	c #197E0A",
"T+	c #608F3D",
"U+	c #5F8E3D",
"V+	c #60903F",
"W+	c #5D893D",
"X+	c #4C7A2F",
"Y+	c #20760E",
"Z+	c #46742A",
"`+	c #4B782D",
" @	c #3E6C24",
".@	c #58893B",
"+@	c #598A3C",
"@@	c #629240",
"#@	c #47742B",
"$@	c #124405",
"%@	c #094C02",
"&@	c #49772C",
"*@	c #578536",
"=@	c #4C7A2E",
"-@	c #538539",
";@	c #649441",
">@	c #639240",
",@	c #3E7430",
"'@	c #477B34",
")@	c #487C34",
"!@	c #3F7530",
"~@	c #2A5513",
"{@	c #046104",
"]@	c #177B0A",
"^@	c #2D5A15",
"/@	c #35631C",
"(@	c #55863A",
"_@	c #5B8B3C",
":@	c #467A33",
"<@	c #55873A",
"[@	c #497D34",
"}@	c #376F2D",
"|@	c #38702D",
"1@	c #4D8036",
"2@	c #1B7C0C",
"3@	c #427027",
"4@	c #3C722F",
"5@	c #38702E",
"6@	c #5E8E3E",
"7@	c #4E8036",
"8@	c #4A7E35",
"9@	c #1B7C0B",
"0@	c #4F7C32",
"a@	c #4B7630",
"b@	c #517D34",
"c@	c #407631",
"d@	c #5A8A3C",
"e@	c #5B8C3D",
"f@	c #4B7E35",
"g@	c #3B722F",
"h@	c #427732",
"i@	c #4F8237",
"j@	c #437832",
"k@	c #427731",
"l@	c #5C8C3D",
"m@	c #669442",
"n@	c #457229",
"o@	c #166907",
"p@	c #087D07",
"q@	c #133903",
"r@	c #335D20",
"s@	c #548036",
"t@	c #3A712E",
"u@	c #518338",
"v@	c #3C732F",
"w@	c #4C792E",
"x@	c #106D06",
"y@	c #1A710B",
"z@	c #356020",
"A@	c #3C6626",
"B@	c #508237",
"C@	c #487B34",
"D@	c #5C8D3D",
"E@	c #5F8F3F",
"F@	c #4D7A2F",
"G@	c #1E730C",
"H@	c #245F0F",
"I@	c #3B6625",
"J@	c #5A873A",
"K@	c #61913F",
"L@	c #407530",
"M@	c #39712E",
"N@	c #4F8137",
"O@	c #4E7B30",
"P@	c #1E640C",
"Q@	c #066D05",
"R@	c #2C5814",
"S@	c #437128",
"T@	c #598639",
"U@	c #558237",
"V@	c #48732E",
"W@	c #3D6827",
"X@	c #5D8D3E",
"Y@	c #39702E",
"Z@	c #447932",
"`@	c #56873A",
" #	c #628F40",
".#	c #4F7D31",
"+#	c #1E780C",
"@#	c #1B3D08",
"##	c #355F21",
"$#	c #5D8A3C",
"%#	c #3B722E",
"&#	c #2F5C17",
"*#	c #156408",
"=#	c #147A09",
"-#	c #558136",
";#	c #528438",
">#	c #3D732F",
",#	c #548639",
"'#	c #639341",
")#	c #386720",
"!#	c #3F6F27",
"~#	c #508035",
"{#	c #45772F",
"]#	c #457932",
"^#	c #527E34",
"/#	c #265311",
"(#	c #077806",
"_#	c #13850A",
":#	c #216D0E",
"<#	c #548235",
"[#	c #376122",
"}#	c #416C29",
"|#	c #3E6927",
"1#	c #4B7730",
"2#	c #619140",
"3#	c #497D35",
"4#	c #5B893A",
"5#	c #4B7C33",
"6#	c #457933",
"7#	c #5E8C3C",
"8#	c #3A6720",
"9#	c #3E6B23",
"0#	c #44702B",
"a#	c #578537",
"b#	c #2F6116",
"c#	c #033A01",
"d#	c #35621C",
"e#	c #396324",
"f#	c #426D2A",
"g#	c #4E7932",
"h#	c #436E2B",
"i#	c #629140",
"j#	c #54863A",
"k#	c #5B8A3B",
"l#	c #346521",
"m#	c #33621D",
"n#	c #57883B",
"o#	c #649340",
"p#	c #38661F",
"q#	c #37641E",
"r#	c #286610",
"s#	c #0F8708",
"t#	c #246B0E",
"u#	c #5C8A3B",
"v#	c #45702B",
"w#	c #45742B",
"x#	c #3A722E",
"y#	c #457A33",
"z#	c #518034",
"A#	c #366D2A",
"B#	c #376F2C",
"C#	c #366C2A",
"D#	c #3F742F",
"E#	c #3D7430",
"F#	c #5A8B3C",
"G#	c #5D8C3B",
"H#	c #3F6B26",
"I#	c #2D5915",
"J#	c #054C02",
"K#	c #447229",
"L#	c #47772E",
"M#	c #447933",
"N#	c #48762C",
"O#	c #32611B",
"P#	c #346724",
"Q#	c #59893B",
"R#	c #5F8F3E",
"S#	c #3C6823",
"T#	c #2D5D15",
"U#	c #2B5613",
"V#	c #508238",
"W#	c #346723",
"X#	c #528439",
"Y#	c #2B5F14",
"Z#	c #167F07",
"`#	c #046004",
" $	c #608F3E",
".$	c #56873B",
"+$	c #5F8D3D",
"@$	c #45732A",
"#$	c #366E2B",
"$$	c #4C7F36",
"%$	c #2D5A16",
"&$	c #088208",
"*$	c #18730A",
"=$	c #437731",
"-$	c #628F3E",
";$	c #4A6C29",
">$	c #496A28",
",$	c #5F8B3C",
"'$	c #4E7933",
")$	c #48722E",
"!$	c #256A11",
"~$	c #23740F",
"{$	c #2E6316",
"]$	c #608E3D",
"^$	c #538439",
"/$	c #537931",
"($	c #588036",
"_$	c #527831",
":$	c #4E712C",
"<$	c #4F732D",
"[$	c #649240",
"}$	c #608D3D",
"|$	c #649140",
"1$	c #5E893B",
"2$	c #476726",
"3$	c #5C8639",
"4$	c #286C13",
"5$	c #0B8708",
"6$	c #285512",
"7$	c #608E3E",
"8$	c #3E6725",
"9$	c #396222",
"0$	c #3B6423",
"a$	c #3C6524",
"b$	c #4A7D35",
"c$	c #3D712C",
"d$	c #588136",
"e$	c #608C3C",
"f$	c #547B32",
"g$	c #4D702B",
"h$	c #4E722D",
"i$	c #4A6B29",
"j$	c #5A863B",
"k$	c #39661F",
"l$	c #2F5F16",
"m$	c #012C01",
"n$	c #39671F",
"o$	c #46702B",
"p$	c #48722C",
"q$	c #497C34",
"r$	c #3E6D25",
"s$	c #588638",
"t$	c #598236",
"u$	c #486827",
"v$	c #496927",
"w$	c #537A32",
"x$	c #4D712C",
"y$	c #50742E",
"z$	c #567E34",
"A$	c #557D33",
"B$	c #3A6621",
"C$	c #2C6314",
"D$	c #0C6005",
"E$	c #3A6323",
"F$	c #588538",
"G$	c #4E7931",
"H$	c #3F6926",
"I$	c #476826",
"J$	c #577F35",
"K$	c #557C33",
"L$	c #5B8939",
"M$	c #416E25",
"N$	c #264F0F",
"O$	c #0A6A05",
"P$	c #14840A",
"Q$	c #276E12",
"R$	c #2A6913",
"S$	c #426C28",
"T$	c #3A6322",
"U$	c #416A27",
"V$	c #5D8B3C",
"W$	c #4E7B2F",
"X$	c #38621E",
"Y$	c #4B772D",
"Z$	c #5F8A3C",
"`$	c #2E5E15",
" %	c #033401",
".%	c #4F7A32",
"+%	c #416B27",
"@%	c #46712B",
"#%	c #578438",
"$%	c #4B792E",
"%%	c #5B8538",
"&%	c #4A782D",
"*%	c #146707",
"=%	c #056604",
"-%	c #1E420A",
";%	c #447128",
">%	c #4F7C30",
",%	c #4B6D29",
"'%	c #486927",
")%	c #118409",
"!%	c #042900",
"~%	c #517C33",
"{%	c #4C7730",
"]%	c #4A772D",
"^%	c #496A27",
"/%	c #507D31",
"(%	c #276D11",
"_%	c #087F07",
":%	c #1C3F09",
"<%	c #4D7930",
"[%	c #568236",
"}%	c #507B32",
"|%	c #578337",
"1%	c #5D8A3B",
"2%	c #538034",
"3%	c #63903F",
"4%	c #51762F",
"5%	c #21470C",
"6%	c #0C2700",
"7%	c #1E770C",
"8%	c #225F0F",
"9%	c #0E8908",
"0%	c #17810A",
"a%	c #305D18",
"b%	c #3C6923",
"c%	c #578436",
"d%	c #386122",
"e%	c #4D7831",
"f%	c #598337",
"g%	c #196208",
"h%	c #098408",
"i%	c #056705",
"j%	c #138409",
"k%	c #1A6E0A",
"l%	c #3F6D25",
"m%	c #45702A",
"n%	c #35611E",
"o%	c #386221",
"p%	c #34601D",
"q%	c #36641E",
"r%	c #396224",
"s%	c #456532",
"t%	c #476633",
"u%	c #486834",
"v%	c #4C6F36",
"w%	c #5D883E",
"x%	c #2B6514",
"y%	c #24650F",
"z%	c #386121",
"A%	c #376121",
"B%	c #42642E",
"C%	c #466533",
"D%	c #567D3A",
"E%	c #17810B",
"F%	c #056905",
"G%	c #376120",
"H%	c #396221",
"I%	c #3E632A",
"J%	c #446431",
"K%	c #557C3A",
"L%	c #2E5C16",
"M%	c #123002",
"N%	c #23530E",
"O%	c #14850A",
"P%	c #265110",
"Q%	c #247010",
"R%	c #336E1E",
"S%	c #36611F",
"T%	c #34601C",
"U%	c #3C6227",
"V%	c #3F632A",
"W%	c #547B39",
"X%	c #3D6F23",
"Y%	c #0E6205",
"Z%	c #056504",
"`%	c #1A7C0B",
" &	c #066F06",
".&	c #315A1A",
"+&	c #507E31",
"@&	c #42642F",
"#&	c #3F632B",
"$&	c #547A39",
"%&	c #1F440B",
"&&	c #32601B",
"*&	c #3A6224",
"=&	c #3D6228",
"-&	c #4C7134",
";&	c #62903E",
">&	c #2B5714",
",&	c #295412",
"'&	c #2C5D14",
")&	c #167F08",
"!&	c #0A8C09",
"~&	c #144B05",
"{&	c #2F6216",
"]&	c #266211",
"^&	c #3A6821",
"/&	c #276211",
"(&	c #056B05",
"_&	c #236F0F",
":&	c #257111",
"<&	c #0C7706",
"[&	c #054802",
"}&	c #214A09",
"|&	c #2A6514",
"1&	c #254E0F",
"2&	c #045C04",
"3&	c #23490E",
"4&	c #1C7A0C",
"5&	c #056805",
"6&	c #254D0F",
"7&	c #23650F",
"8&	c #255E10",
"9&	c #1D680C",
"0&	c #128609",
"a&	c #087E07",
"b&	c #1E480B",
"c&	c #24710F",
"d&	c #118608",
"e&	c #075603",
"f&	c #2A6411",
"g&	c #0D8A08",
"h&	c #244B0F",
"i&	c #2A6A14",
"j&	c #1D7A0D",
"k&	c #138107",
"l&	c #135D06",
"m&	c #266010",
"n&	c #2A6914",
"o&	c #1C660B",
"p&	c #22710F",
"q&	c #103303",
"r&	c #276710",
"s&	c #108709",
"t&	c #265F10",
"u&	c #118407",
"v&	c #088207",
"w&	c #098508",
"x&	c #0B8B09",
"                                                                                                                                ",
"                                                                                                                                ",
"                                          . + @ # $   % &     * = - ; > ,                                                       ",
"                              ' ) .     ! ~ { ] ^ / ( _ : < [ } | | | 1 2   3 4 5 6                                             ",
"                      7 7   8 9 0 a b c d e f g | h | | i j | | | | | | k l m n o p q                                           ",
"                    r s t u v | g w x y z A B C D E | F G H I J K L | | | | | | | | M N O P                                     ",
"                  Q g | R S T | | U V z z z z W z X Y Z z z z `  ...+.@.#.$.| | | | | F n %.                                    ",
"                  &.| | *.=.g | | | C -.z z z z z z ....z z -.;.>.H z z z @.| ,.'.).!.~.{.].^.                                  ",
"                  /.| | | | (._.F | L z z z z z z z z ..:.<.[.}.|.1. .z z 2.3.}.}.4.}.5.6.| 7.8.9.0.a.                          ",
"                b.c.| | | d.}.}.e.| f.g.z z z z z z z h.}.}.}.}.}.}.}.i.+.j.k.}.}.l.!.m.| | | | | | n.o.                        ",
"              p.w | | | | F 4.}.!.| | $.q.z r.s.t.z u.v.}.}.}.}.}.}.}.w.'.x.}.}.}.y.| | | | | | | | z.o.                        ",
"                A.| | | | | B.}.C.D.| | E.-.F.}.G.v.H.}.}.}.H.H.H.v.H.}.}.}.}.}.}.!.| | | | | | | | I.J.6                       ",
"                K.| | | | | y.}.}.L.M.N.z u.>.}.}.}.}.[.s.}.r.H u.z O.}.}.}.}.}.M.P.| | | | D.).| | | Q.R..                     ",
"                S.| | | | $.T.}.}.}.}.H.H s.}.}.}.s.1.U.z U.z z z z z V.x.}.}.}.d.| | | | W.T.$.| | | | g X.Y.Z.                ",
"        + `. +.+++| | | | @+}.}.}.}.}.}.#+H.}.}.H.u.z z z z z z z z $+%+&+l.}.}.k.*+F F =+}.-+F | | | | ;+| | >+,+              ",
"        '+)+n !+n | | | | !.}.}.}.}.}.}.~+H.H.}.;.z z z z z z z z z {+| D.l.}.}.}.}.]+k.}.}.}.4.F ^+/+(+_+e | :+<+[+            ",
"      [+}+|+n | | | | | | ,.}.}.}.}.}.}.}.}.1+#+U.z z z z z z z z z @.P.k.2+x.}.}.}.H.}.}.}.}.x.3+..z z z 4+5+| h 6+            ",
"          7+_ | | | | | 8+~.}.}.}.}.9+0+9+}.s.H z z z z z z z z z a+b+~.k.c+d+e+r.f+h.}.}.|.s.}.g+#+..z z $+$.| | h+            ",
"        i+j+| F k+l+m+n+T.}.}.}.o+p+q+z ` ;.}.r+H z z z z z z z z 4+@+C.$.E.z z z z 1.H.s+-.H H.H.h.z z z t+| | | _ u+          ",
"      v+n.| $.w+}.x+1.1.p+y+z+A+B+| 3+..z z C+}.D+z z z z z z z z #.P.E+F+..z z z z z ..z z z |.}.9+h.z z B | | | | G+H+        ",
"      I+J+| K+z+L+M+z z u.N+Y O+d+e P+..z z U.9+1.z z z z z z z z {+| U L z z z z z z z z z z v.}.}.C+z z Q+| | | n R++         ",
"        S+| | C T+z z z z z z z -.@.D 2.z z z H z z z z z z z z z -.U+i.z z z -.V+z z z z z z W+}.}.W+z z X+| | | | _ Y+        ",
"          !+| Z+z z z z z z z z z z ..`+ @^+@.z z z z z z z q+z z z z z z z z .@+@..@@z z z ` ;.}.:.z z z #@| | | | n $@P       ",
"      P %@_ | &@z z z z z z z z z z z -.*@Z =@....z z z z z -@;@z z z z z z >@,@'@)@!@-.z z O.}.}.D+z z T+U | | | | ~@{@        ",
"      ]@^@| /@U+z z z z z z z z z z z z z +@(@_@:@..z z z z <@V+z z z z z -.[@}@}@|@1@z z z ..r+}.}.:.-...4+P+| | | n ]@        ",
"      2@| | 3@z z z z z z z z z z z z z u.4@}@5@}@6@z z z z +@1@-.z z z -.7@}@}@}@8@-.z z z z u.[.}.}.W+z z >@{+d | | g 9@      ",
"        }+| ).0@a@b@-.z z z z z z z z ;@.@}@}@}@c@;@d@e@..f@g@}@h@(@i@j@k@}@}@}@}@}@l@z z z z z r.}.}.h.z z z z m@n@| | o@      ",
"      p@q@| | r@r@r@s@z z z z z z z <@t@}@}@}@|@l@z u@}@v@|@}@}@}@}@}@}@}@}@}@}@}@t@>@z z z z z z s.}.r.z z z z z w@| n x@      ",
"      y@n | | z@r@r@A@..z z z z z z l@}@}@}@}@!@@@z B@}@}@}@}@}@}@}@}@}@}@}@}@}@}@C@-.V+D@E@z z z H C+s.z z z z z F@| | G@      ",
"      H@| | j I@r@r@r@J@z z z z z z K@t@}@}@}@}@v@f@v@}@}@}@}@}@}@}@}@}@}@}@}@}@}@g@L@}@M@N@z z z z D+v.z z z z z O@| | P@      ",
"    Q@R@| | S@T@U@V@r@W@q+z z z z z z X@:@}@}@}@}@}@}@}@}@}@}@}@}@}@}@}@}@}@}@}@Y@}@}@}@Z@`@-.z z z |.F.:. #z z z .#| | g +#    ",
"  i+@#| | | O@z z U@r@##$#z z z z z z z z f@}@}@}@}@}@}@}@}@}@}@}@}@}@}@}@}@!@+@>@u@%#}@}@}@i@z z z [.}.}.}.W+z z V | | &#*#    ",
"  =#g | | /@q.z -###r@,.z z z z z z z z z ;#}@}@}@}@|@>#|@}@}@}@}@}@}@}@|@,#'#u.F@j.)#!#~#{#]#..T++.^#}.}.}.p+I z 2.| | /#(#    ",
"  _#:#h E <#[#}#|#r@r@1#m@z z z z z z z z 2#'@3#u@<@V+4#5#f@6#}@}@}@}@}@t@'#z 7#| | | | | | 8#9#F | $.l.}.}.0#e S@a#P+| b#[+    ",
"    c#k d#4#e#r@f#g#h##+i#e@j#i@-@..>@6@-.z z z z z k#l#m#Y V+|@}@}@}@}@}@n#z o#p#| | | /@n@j.| | | q#l.}.}.o+| | | | | | r#s#  ",
"    t#n | .#u#v#>@g.j.w#M@}@}@}@}@!@x#}@y#(@q+z z z z#A#B#C#D#}@}@E#,@}@F#2#z z a#q.4+F+G#z ..f.| H#k.}.}.}.l.P.| | | | I#J#P   ",
"      /.n L D p#@.K#| | L#M#5@}@}@}@}@}@}@}@j@z a+N#U O#P#}@}@}@t@V+Q#}@R#z z z z z z ..z z z >@U+~+}.}.}.}.}.S#| | | | T#+     ",
"      + U#| | | | | | %+U+z 2#(@:@M@}@}@}@}@V#g.j F F | W#}@}@}@X#z `@}@.@..m@z z z z z z z z z z s+}.}.}.}.T.$.| | | | Y#Z#    ",
"      `#1 | | | $./+w@ $z z z z z @@.$k@}@}@V#..4#T++$@$#$}@}@$$z z Q#j@E@..+.4#z z z z i.X z z z m@r+}.}.}.o+| | | | %$2 &$    ",
"      *$g | | O+$+z z z z z z z z z z ..c@}@v@D@z z z N@}@=$,#u.z z z z -$i.I w@z z z u.;$>$,$z z g.'$}.x.C.)$| | | | !$        ",
"      3 ~${$P+2.z z z z >@]$>@>@-.z z z :@}@}@|@^$-.-.,@v@..z z H /$($_$:$<$m@[$z }$|$1$2$2$3$z z u#V@}.!.| | | | | | 4$        ",
"          5$6$;+z z z 7$8$9$0$a$+$z z z $$}@}@}@}@j@b$}@c$..z z d$2$2$2$2$2$e$f$-$d$g$h$2$i$[$z z z j$}.*+| | | C k$| l$        ",
"        S m$*.n$..z z i.o$9$9$0$>@U.p$U.;@.@N@q$,@}@}@c@r$s$z t$u$2$2$;$v$2$w$x$y$z$2$2$2$A$z z z z D+}.B$| U #...O@| C$        ",
"        D$)+| P+u.z z z m@T@E$9$F$G$H$..z z z z ..<@7@u.K Z z _$2$g$I$J$e$z$>$2$2$2$2$2$2$K$z z z z u.p+F ^+L$z z M$N$O$        ",
"        P$Q$R$p 3@o#z z z z S$9$T$9$U$V$F$i.z z z z z z g.{+z |$J$W$X$Y$-.i.u$2$2$2$2$2$2$u$Z$z z z z X G ..z z a+F `$          ",
"            +  %%${+z z z z  $.%0$9$9$9$9$+%@%#%z z z >@$%M+z z 4#F | | +.1$2$2$2$2$2$2$2$2$%%z z z z z z z z z &%I.*%          ",
"            =%-%| ;%....u.z z z o$9$9$9$9$9$9$F$z z z #.| x g.z >%| | | 3@[$,%2$2$2$2$2$2$'%[$z z z z z z z z $+/@h )%          ",
"          + !%:+| | F+P+9#-.z z ~%9$9$9$9$9$9$^#{%+$z a#| | @.z ]%| | | /+z 3$I$2$J$w$A$/$^%H z z z z z z z z /%| g (%          ",
"          _%:%| _ w | | ;+z z z i.<%[%}%9$9$9$9$9$|%1%2%| | #@..B | | | E 7#z d$:$3%z z ..4%Z$z z z z z z ..z x 5%6%7%          ",
"          + 8%A.9%0%a%| U a+z z z z U.W.9$9$9$9$9$9$9$b%| | #.c%| | | | d%e%1+-.z z z z z [$f%z z z z o#O@F+/+g%h%i%+           ",
"            @ j%    k%| | l%o#z z z U.m%n%o%9$9$9$9$9$6.| p%n@q%| | | r%s%t%u%v%w%z z z z z z z [$o#K j.| | x%                  ",
"                      y%| | >%z z z z {+| z%9$9$9$9$9$o%o%o%| | | A%B%C%C%C%C%C%D%z z z z z z z 3+E e | | | g E%                ",
"                      F%R@| j.z z z z <#| G%9$9$9$o%9$H%H%o%| | A%s%C%C%I%G%J%C%K%z z z z z z z 3+n L%)+M%s N%O%                ",
"                      . P%Q%R%..z T+x F | 6.G%S%6.6.T%G%T%n%| | I%C%C%C%U%| n%V%t%W%-.z z z z ..X%Y%Z%&$P S p@                  ",
"                        Z.`% &.&+&#.| | | | | | | | | | | | | | A%C%s%@&U%| | #&C%$&z z z g.4+j.~$                              ",
"                            . %&| p#| | | | | | | | | | | | | | &&*&p%| | | | =&-&` >@;&$+3@>&,&'&)&                            ",
"                            !&~&| | {&]&n | | | | | | | | | | | | | | | | | | | ^&+.j F F /&o.(&^.                              ",
"                              7 _&:&<&[&}&| | | |&1&| | | | | | | | | | | | | | | $.| | | 9.                                    ",
"                                    2&3&| | | n 4&5&6&| 7&6&w | | | | | | | | | | | g 8&9&0&                                    ",
"                                    a&b&| | c&d&    e&f&g&^.G+_ | | | | | | g h&~@g i&                                          ",
"                                      P j&4$k&              p@l&m&~@| n&o&p&E%P `#q&r&s&                                        ",
"                                                                + [&t&u&          v&w&x&                                        ",
"                                                                  !&                                                            ",
"                                                                                                                                "};
